<?xml version="1.0" standalone="no"?>
<!DOCTYPE svg PUBLIC "-//W3C//DTD SVG 20010904//EN"
 "http://www.w3.org/TR/2001/REC-SVG-20010904/DTD/svg10.dtd">
<svg version="1.0" xmlns="http://www.w3.org/2000/svg"
 width="512.000000pt" height="512.000000pt" viewBox="0 0 512.000000 512.000000"
 preserveAspectRatio="xMidYMid meet">

<g transform="translate(0.000000,512.000000) scale(0.100000,-0.100000)"
fill="#000000" stroke="none">
<path d="M2375 5113 c-212 -17 -485 -75 -675 -143 -313 -111 -659 -321 -873
-529 -49 -47 -57 -61 -57 -91 0 -41 28 -74 70 -85 30 -7 44 2 187 123 54 46
144 114 199 152 101 68 272 165 278 159 15 -18 158 -346 165 -380 24 -103 4
-223 -52 -318 -24 -40 -119 -134 -367 -363 -441 -406 -424 -397 -787 -398
-151 0 -183 2 -183 14 0 8 16 61 36 118 67 193 177 403 303 578 70 97 77 134
36 175 -38 39 -85 34 -127 -13 -85 -94 -232 -343 -317 -536 -191 -435 -256
-964 -176 -1434 93 -545 350 -1032 748 -1419 401 -390 889 -624 1472 -705 115
-16 481 -16 605 0 674 88 1255 408 1681 925 305 370 496 820 561 1317 16 122
16 489 0 605 -65 471 -226 869 -503 1242 -102 137 -358 391 -500 496 -401 297
-840 464 -1329 507 -107 9 -303 11 -395 3z m515 -189 c402 -57 782 -214 1100
-456 155 -118 186 -146 175 -157 -19 -18 -111 -43 -177 -48 -90 -8 -167 9
-296 64 -134 57 -208 71 -298 56 -37 -7 -87 -23 -113 -36 -185 -98 -182 -97
-240 -97 -31 0 -72 5 -91 10 -55 15 -126 65 -155 108 -20 31 -235 560 -235
579 0 9 214 -7 330 -23z m1953 -1671 c194 -639 115 -1314 -220 -1892 -67 -115
-201 -301 -287 -396 l-45 -50 -1 117 c0 162 -17 398 -40 558 -25 168 -66 263
-158 361 -107 115 -218 165 -397 181 -199 17 -310 59 -420 160 -132 122 -197
267 -198 443 -1 110 16 181 63 275 80 158 232 277 405 315 46 10 200 14 666
14 l606 1 26 -87z m-3476 -892 c249 -23 309 -32 346 -50 34 -16 91 -75 251
-259 115 -130 216 -253 226 -272 26 -51 33 -111 20 -161 -17 -61 -226 -528
-265 -592 -18 -28 -73 -117 -124 -197 -50 -80 -124 -211 -163 -292 -40 -81
-79 -147 -86 -148 -33 -1 -265 133 -403 232 l-96 69 26 112 c19 84 26 140 26
222 0 103 -2 114 -32 178 -27 57 -59 96 -191 230 -88 89 -167 177 -177 196
-38 75 -32 126 44 379 39 129 80 249 92 268 27 45 78 83 131 99 55 18 27 19
375 -14z"/>
</g>
</svg>
